<?xml version="1.0" encoding="iso-8859-1"?>
<!-- Generator: Adobe Illustrator 19.0.0, SVG Export Plug-In . SVG Version: 6.00 Build 0)  -->
<svg version="1.1" id="Layer_1" xmlns="http://www.w3.org/2000/svg" xmlns:xlink="http://www.w3.org/1999/xlink" x="0px" y="0px"
	 viewBox="0 0 512 512" style="enable-background:new 0 0 512 512;" xml:space="preserve">
<g>
	<g>
		<path d="M431.243,24.607h-0.671v-7.265C430.572,7.764,422.808,0,413.231,0s-17.342,7.764-17.342,17.342v7.265H367.68v-7.265
			C367.68,7.764,359.915,0,350.338,0s-17.342,7.764-17.342,17.342v7.265h-28.208v-7.265C304.788,7.764,297.024,0,287.446,0
			c-9.577,0-17.342,7.764-17.342,17.342v7.265h-28.209v-7.265C241.895,7.764,234.131,0,224.554,0s-17.342,7.764-17.342,17.342v7.265
			h-28.209v-7.265C179.003,7.764,171.238,0,161.661,0s-17.342,7.764-17.342,17.342v7.265H116.11v-7.265
			C116.11,7.764,108.345,0,98.768,0S81.426,7.764,81.426,17.342v7.265h-0.671c-21.942,0-39.794,17.852-39.794,39.794v407.806
			c0,21.942,17.852,39.794,39.794,39.794h350.488c21.942,0,39.794-17.852,39.794-39.794V64.4
			C471.036,42.458,453.186,24.607,431.243,24.607z M436.353,472.206c0,2.819-2.291,5.11-5.11,5.11H80.756
			c-2.819,0-5.11-2.293-5.11-5.11V64.4c0-2.818,2.293-5.11,5.11-5.11h0.671v1.171c0,9.577,7.764,17.342,17.342,17.342
			s17.342-7.764,17.342-17.342V59.29h28.209v1.171c0,9.577,7.764,17.342,17.342,17.342s17.342-7.764,17.342-17.342V59.29h28.209
			v1.171c0,9.577,7.765,17.342,17.342,17.342s17.342-7.764,17.342-17.342V59.29h28.209v1.171c0,9.577,7.764,17.342,17.342,17.342
			s17.342-7.764,17.342-17.342V59.29h28.208v1.171c0,9.577,7.764,17.342,17.342,17.342s17.342-7.764,17.342-17.342V59.29h28.209
			v1.171c0,9.577,7.764,17.342,17.342,17.342s17.342-7.764,17.342-17.342V59.29h0.671c2.819,0,5.11,2.293,5.11,5.11V472.206z"/>
	</g>
</g>
<g>
	<g>
		<path d="M165.559,132.235h-16.058c-21.942,0-39.794,17.852-39.794,39.794c0,21.942,17.852,39.794,39.794,39.794h16.058
			c21.942,0,39.794-17.852,39.794-39.794C205.354,150.087,187.502,132.235,165.559,132.235z M165.559,177.139h-16.058
			c-2.819,0-5.11-2.293-5.11-5.11c0-2.817,2.293-5.11,5.11-5.11h16.058c2.819,0,5.11,2.293,5.11,5.11
			C170.671,174.846,168.378,177.139,165.559,177.139z"/>
	</g>
</g>
<g>
	<g>
		<path d="M384.949,132.235H242.743c-9.577,0-17.342,7.765-17.342,17.342c0,9.577,7.764,17.342,17.342,17.342h142.206
			c9.577,0,17.342-7.765,17.342-17.342C402.29,140,394.526,132.235,384.949,132.235z"/>
	</g>
</g>
<g>
	<g>
		<path d="M384.949,177.139H242.743c-9.577,0-17.342,7.764-17.342,17.342s7.764,17.342,17.342,17.342h142.206
			c9.577,0,17.342-7.764,17.342-17.342S394.526,177.139,384.949,177.139z"/>
	</g>
</g>
<g>
	<g>
		<path d="M165.559,240.401h-16.058c-21.942,0-39.794,17.852-39.794,39.794c0,21.942,17.852,39.794,39.794,39.794h16.058
			c21.942,0,39.794-17.852,39.794-39.794C205.354,258.252,187.502,240.401,165.559,240.401z M165.559,285.305h-16.058
			c-2.819,0-5.11-2.293-5.11-5.11c0-2.817,2.293-5.11,5.11-5.11h16.058c2.819,0,5.11,2.293,5.11,5.11
			C170.671,283.013,168.378,285.305,165.559,285.305z"/>
	</g>
</g>
<g>
	<g>
		<path d="M384.949,240.401H242.743c-9.577,0-17.342,7.765-17.342,17.342c0,9.577,7.764,17.342,17.342,17.342h142.206
			c9.577,0,17.342-7.765,17.342-17.342C402.29,248.165,394.526,240.401,384.949,240.401z"/>
	</g>
</g>
<g>
	<g>
		<path d="M384.949,285.305H242.743c-9.577,0-17.342,7.764-17.342,17.342s7.764,17.342,17.342,17.342h142.206
			c9.577,0,17.342-7.764,17.342-17.342S394.526,285.305,384.949,285.305z"/>
	</g>
</g>
<g>
	<g>
		<path d="M165.559,348.567h-16.058c-21.942,0-39.794,17.852-39.794,39.794c0,21.942,17.852,39.793,39.794,39.793h16.058
			c21.942,0,39.794-17.852,39.794-39.793C205.354,366.418,187.502,348.567,165.559,348.567z M165.559,393.47h-16.058
			c-2.819,0-5.11-2.293-5.11-5.11c0-2.817,2.293-5.11,5.11-5.11h16.058c2.819,0,5.11,2.293,5.11,5.11
			C170.671,391.178,168.378,393.47,165.559,393.47z"/>
	</g>
</g>
<g>
	<g>
		<path d="M384.949,348.567H242.743c-9.577,0-17.342,7.764-17.342,17.342s7.764,17.342,17.342,17.342h142.206
			c9.577,0,17.342-7.764,17.342-17.342S394.526,348.567,384.949,348.567z"/>
	</g>
</g>
<g>
	<g>
		<path d="M384.949,393.47H242.743c-9.577,0-17.342,7.764-17.342,17.342s7.764,17.342,17.342,17.342h142.206
			c9.577,0,17.342-7.764,17.342-17.342S394.526,393.47,384.949,393.47z"/>
	</g>
</g>
<g>
</g>
<g>
</g>
<g>
</g>
<g>
</g>
<g>
</g>
<g>
</g>
<g>
</g>
<g>
</g>
<g>
</g>
<g>
</g>
<g>
</g>
<g>
</g>
<g>
</g>
<g>
</g>
<g>
</g>
</svg>
